<?xml version="1.0" encoding="UTF-8"?>
<svg width="140mm" height="100mm" viewBox="0 0 140 100" version="1.1" xmlns="http://www.w3.org/2000/svg">
<title>GCLCOutputFigure</title>

<!-- Drawing 2D Cartesian system -->
<line x1="0.00" y1="55.00" x2="29.60" y2="55.00" style="stroke:#000000; stroke-width:0.20"/>
<line x1="30.40" y1="55.00" x2="39.60" y2="55.00" style="stroke:#000000; stroke-width:0.20"/>
<line x1="40.40" y1="55.00" x2="47.10" y2="55.00" style="stroke:#000000; stroke-width:0.20"/>
<line x1="47.90" y1="55.00" x2="69.60" y2="55.00" style="stroke:#000000; stroke-width:0.20"/>
<line x1="70.40" y1="55.00" x2="79.60" y2="55.00" style="stroke:#000000; stroke-width:0.20"/>
<line x1="80.40" y1="55.00" x2="89.60" y2="55.00" style="stroke:#000000; stroke-width:0.20"/>
<line x1="90.40" y1="55.00" x2="120.00" y2="55.00" style="stroke:#000000; stroke-width:0.20"/>
<line x1="117.03" y1="54.61" x2="120.00" y2="55.00" style="stroke:#000000; stroke-width:0.20"/>
<line x1="117.03" y1="54.61" x2="119.00" y2="55.00" style="stroke:#000000; stroke-width:0.20"/>
<line x1="117.03" y1="55.39" x2="120.00" y2="55.00" style="stroke:#000000; stroke-width:0.20"/>
<line x1="117.03" y1="55.39" x2="119.00" y2="55.00" style="stroke:#000000; stroke-width:0.20"/>
<line x1="60.00" y1="100.00" x2="60.00" y2="10.00" style="stroke:#000000; stroke-width:0.20"/>
<line x1="59.61" y1="12.97" x2="60.00" y2="10.00" style="stroke:#000000; stroke-width:0.20"/>
<line x1="59.61" y1="12.97" x2="60.00" y2="11.00" style="stroke:#000000; stroke-width:0.20"/>
<line x1="60.39" y1="12.97" x2="60.00" y2="10.00" style="stroke:#000000; stroke-width:0.20"/>
<line x1="60.39" y1="12.97" x2="60.00" y2="11.00" style="stroke:#000000; stroke-width:0.20"/>

<!-- Drawing segment a AA -->
<line x1="30.00" y1="54.60" x2="30.00" y2="47.01" style="stroke:#000000; stroke-width:0.20"/>

<!-- Drawing segment b BB -->
<line x1="90.00" y1="54.60" x2="90.00" y2="42.50" style="stroke:#000000; stroke-width:0.20"/>

<!-- Drawing segment x_1 XX1 -->
<line x1="40.00" y1="54.60" x2="40.00" y2="20.36" style="stroke:#000000; stroke-width:0.20"/>

<!-- Drawing segment x_2 XX2 -->
<line x1="47.50" y1="55.40" x2="47.50" y2="57.40" style="stroke:#000000; stroke-width:0.20"/>

<!-- Drawing segment x_3 XX3 -->
<line x1="70.00" y1="54.60" x2="70.00" y2="50.71" style="stroke:#000000; stroke-width:0.20"/>

<!-- Drawing segment x_4 XX4 -->
<line x1="80.00" y1="54.60" x2="80.00" y2="25.85" style="stroke:#000000; stroke-width:0.20"/>

<!-- Marking point a by circle -->
<circle cx="30.00" cy="55.00" r="0.40" fill="none" stroke="#000000" stroke-width="0.20"/>
<text x="30.00" y="56.00" style="font-size:2.81pt; font-style:italic; fill:#000000" text-anchor="middle" dy="2.811951">a</text>

<!-- Marking point b by circle -->
<circle cx="90.00" cy="55.00" r="0.40" fill="none" stroke="#000000" stroke-width="0.20"/>
<text x="90.00" y="56.00" style="font-size:2.81pt; font-style:italic; fill:#000000" text-anchor="middle" dy="2.811951">b</text>

<!-- Marking point x_1 by circle -->
<circle cx="40.00" cy="55.00" r="0.40" fill="none" stroke="#000000" stroke-width="0.20"/>
<text x="40.00" y="56.00" style="font-size:2.81pt; font-style:italic; fill:#000000" text-anchor="middle" dy="2.811951">x_1</text>

<!-- Marking point x_2 by circle -->
<circle cx="47.50" cy="55.00" r="0.40" fill="none" stroke="#000000" stroke-width="0.20"/>
<text x="47.50" y="54.00" style="font-size:2.81pt; font-style:italic; fill:#000000" text-anchor="middle">x_2</text>

<!-- Marking point x_3 by circle -->
<circle cx="70.00" cy="55.00" r="0.40" fill="none" stroke="#000000" stroke-width="0.20"/>
<text x="70.00" y="56.00" style="font-size:2.81pt; font-style:italic; fill:#000000" text-anchor="middle" dy="2.811951">x_3</text>

<!-- Marking point x_4 by circle -->
<circle cx="80.00" cy="55.00" r="0.40" fill="none" stroke="#000000" stroke-width="0.20"/>
<text x="80.00" y="56.00" style="font-size:2.81pt; font-style:italic; fill:#000000" text-anchor="middle" dy="2.811951">x_4</text>

<!-- Changing color 255 0 0 -->

<!-- Drawing 2D parametric curve (x,1.8*(1-exp(-x/10)*sin(pow(x,2)))) -->
<line x1="30.50" y1="52.98" x2="30.00" y2="47.01" style="stroke:#FF0000; stroke-width:0.40"/>
<line x1="31.00" y1="57.43" x2="30.50" y2="52.98" style="stroke:#FF0000; stroke-width:0.40"/>
<line x1="31.50" y1="60.08" x2="31.00" y2="57.43" style="stroke:#FF0000; stroke-width:0.40"/>
<line x1="32.00" y1="60.81" x2="31.50" y2="60.08" style="stroke:#FF0000; stroke-width:0.40"/>
<line x1="32.50" y1="59.70" x2="32.00" y2="60.81" style="stroke:#FF0000; stroke-width:0.40"/>
<line x1="33.00" y1="56.93" x2="32.50" y2="59.70" style="stroke:#FF0000; stroke-width:0.40"/>
<line x1="33.50" y1="52.81" x2="33.00" y2="56.93" style="stroke:#FF0000; stroke-width:0.40"/>
<line x1="34.00" y1="47.71" x2="33.50" y2="52.81" style="stroke:#FF0000; stroke-width:0.40"/>
<line x1="34.50" y1="42.05" x2="34.00" y2="47.71" style="stroke:#FF0000; stroke-width:0.40"/>
<line x1="35.00" y1="36.23" x2="34.50" y2="42.05" style="stroke:#FF0000; stroke-width:0.40"/>
<line x1="35.50" y1="30.63" x2="35.00" y2="36.23" style="stroke:#FF0000; stroke-width:0.40"/>
<line x1="36.00" y1="25.57" x2="35.50" y2="30.63" style="stroke:#FF0000; stroke-width:0.40"/>
<line x1="36.50" y1="21.30" x2="36.00" y2="25.57" style="stroke:#FF0000; stroke-width:0.40"/>
<line x1="37.00" y1="18.02" x2="36.50" y2="21.30" style="stroke:#FF0000; stroke-width:0.40"/>
<line x1="37.50" y1="15.83" x2="37.00" y2="18.02" style="stroke:#FF0000; stroke-width:0.40"/>
<line x1="38.00" y1="14.75" x2="37.50" y2="15.83" style="stroke:#FF0000; stroke-width:0.40"/>
<line x1="38.50" y1="14.77" x2="38.00" y2="14.75" style="stroke:#FF0000; stroke-width:0.40"/>
<line x1="39.00" y1="15.80" x2="38.50" y2="14.77" style="stroke:#FF0000; stroke-width:0.40"/>
<line x1="39.50" y1="17.72" x2="39.00" y2="15.80" style="stroke:#FF0000; stroke-width:0.40"/>
<line x1="40.00" y1="20.36" x2="39.50" y2="17.72" style="stroke:#FF0000; stroke-width:0.40"/>
<line x1="40.50" y1="23.57" x2="40.00" y2="20.36" style="stroke:#FF0000; stroke-width:0.40"/>
<line x1="41.00" y1="27.17" x2="40.50" y2="23.57" style="stroke:#FF0000; stroke-width:0.40"/>
<line x1="41.50" y1="31.00" x2="41.00" y2="27.17" style="stroke:#FF0000; stroke-width:0.40"/>
<line x1="42.00" y1="34.88" x2="41.50" y2="31.00" style="stroke:#FF0000; stroke-width:0.40"/>
<line x1="42.50" y1="38.69" x2="42.00" y2="34.88" style="stroke:#FF0000; stroke-width:0.40"/>
<line x1="43.00" y1="42.31" x2="42.50" y2="38.69" style="stroke:#FF0000; stroke-width:0.40"/>
<line x1="43.50" y1="45.64" x2="43.00" y2="42.31" style="stroke:#FF0000; stroke-width:0.40"/>
<line x1="44.00" y1="48.60" x2="43.50" y2="45.64" style="stroke:#FF0000; stroke-width:0.40"/>
<line x1="44.50" y1="51.16" x2="44.00" y2="48.60" style="stroke:#FF0000; stroke-width:0.40"/>
<line x1="45.00" y1="53.27" x2="44.50" y2="51.16" style="stroke:#FF0000; stroke-width:0.40"/>
<line x1="45.50" y1="54.94" x2="45.00" y2="53.27" style="stroke:#FF0000; stroke-width:0.40"/>
<line x1="46.00" y1="56.16" x2="45.50" y2="54.94" style="stroke:#FF0000; stroke-width:0.40"/>
<line x1="46.50" y1="56.95" x2="46.00" y2="56.16" style="stroke:#FF0000; stroke-width:0.40"/>
<line x1="47.00" y1="57.35" x2="46.50" y2="56.95" style="stroke:#FF0000; stroke-width:0.40"/>
<line x1="47.50" y1="57.40" x2="47.00" y2="57.35" style="stroke:#FF0000; stroke-width:0.40"/>
<line x1="48.00" y1="57.12" x2="47.50" y2="57.40" style="stroke:#FF0000; stroke-width:0.40"/>
<line x1="48.50" y1="56.57" x2="48.00" y2="57.12" style="stroke:#FF0000; stroke-width:0.40"/>
<line x1="49.00" y1="55.80" x2="48.50" y2="56.57" style="stroke:#FF0000; stroke-width:0.40"/>
<line x1="49.50" y1="54.84" x2="49.00" y2="55.80" style="stroke:#FF0000; stroke-width:0.40"/>
<line x1="50.00" y1="53.74" x2="49.50" y2="54.84" style="stroke:#FF0000; stroke-width:0.40"/>
<line x1="50.50" y1="52.54" x2="50.00" y2="53.74" style="stroke:#FF0000; stroke-width:0.40"/>
<line x1="51.00" y1="51.26" x2="50.50" y2="52.54" style="stroke:#FF0000; stroke-width:0.40"/>
<line x1="51.50" y1="49.96" x2="51.00" y2="51.26" style="stroke:#FF0000; stroke-width:0.40"/>
<line x1="52.00" y1="48.64" x2="51.50" y2="49.96" style="stroke:#FF0000; stroke-width:0.40"/>
<line x1="52.50" y1="47.35" x2="52.00" y2="48.64" style="stroke:#FF0000; stroke-width:0.40"/>
<line x1="53.00" y1="46.09" x2="52.50" y2="47.35" style="stroke:#FF0000; stroke-width:0.40"/>
<line x1="53.50" y1="44.88" x2="53.00" y2="46.09" style="stroke:#FF0000; stroke-width:0.40"/>
<line x1="54.00" y1="43.73" x2="53.50" y2="44.88" style="stroke:#FF0000; stroke-width:0.40"/>
<line x1="54.50" y1="42.67" x2="54.00" y2="43.73" style="stroke:#FF0000; stroke-width:0.40"/>
<line x1="55.00" y1="41.68" x2="54.50" y2="42.67" style="stroke:#FF0000; stroke-width:0.40"/>
<line x1="55.50" y1="40.79" x2="55.00" y2="41.68" style="stroke:#FF0000; stroke-width:0.40"/>
<line x1="56.00" y1="39.98" x2="55.50" y2="40.79" style="stroke:#FF0000; stroke-width:0.40"/>
<line x1="56.50" y1="39.28" x2="56.00" y2="39.98" style="stroke:#FF0000; stroke-width:0.40"/>
<line x1="57.00" y1="38.67" x2="56.50" y2="39.28" style="stroke:#FF0000; stroke-width:0.40"/>
<line x1="57.50" y1="38.15" x2="57.00" y2="38.67" style="stroke:#FF0000; stroke-width:0.40"/>
<line x1="58.00" y1="37.73" x2="57.50" y2="38.15" style="stroke:#FF0000; stroke-width:0.40"/>
<line x1="58.50" y1="37.41" x2="58.00" y2="37.73" style="stroke:#FF0000; stroke-width:0.40"/>
<line x1="59.00" y1="37.18" x2="58.50" y2="37.41" style="stroke:#FF0000; stroke-width:0.40"/>
<line x1="59.50" y1="37.05" x2="59.00" y2="37.18" style="stroke:#FF0000; stroke-width:0.40"/>
<line x1="60.00" y1="37.00" x2="59.50" y2="37.05" style="stroke:#FF0000; stroke-width:0.40"/>
<line x1="60.50" y1="37.04" x2="60.00" y2="37.00" style="stroke:#FF0000; stroke-width:0.40"/>
<line x1="61.00" y1="37.18" x2="60.50" y2="37.04" style="stroke:#FF0000; stroke-width:0.40"/>
<line x1="61.50" y1="37.40" x2="61.00" y2="37.18" style="stroke:#FF0000; stroke-width:0.40"/>
<line x1="62.00" y1="37.71" x2="61.50" y2="37.40" style="stroke:#FF0000; stroke-width:0.40"/>
<line x1="62.50" y1="38.10" x2="62.00" y2="37.71" style="stroke:#FF0000; stroke-width:0.40"/>
<line x1="63.00" y1="38.57" x2="62.50" y2="38.10" style="stroke:#FF0000; stroke-width:0.40"/>
<line x1="63.50" y1="39.12" x2="63.00" y2="38.57" style="stroke:#FF0000; stroke-width:0.40"/>
<line x1="64.00" y1="39.76" x2="63.50" y2="39.12" style="stroke:#FF0000; stroke-width:0.40"/>
<line x1="64.50" y1="40.46" x2="64.00" y2="39.76" style="stroke:#FF0000; stroke-width:0.40"/>
<line x1="65.00" y1="41.24" x2="64.50" y2="40.46" style="stroke:#FF0000; stroke-width:0.40"/>
<line x1="65.50" y1="42.08" x2="65.00" y2="41.24" style="stroke:#FF0000; stroke-width:0.40"/>
<line x1="66.00" y1="42.97" x2="65.50" y2="42.08" style="stroke:#FF0000; stroke-width:0.40"/>
<line x1="66.50" y1="43.92" x2="66.00" y2="42.97" style="stroke:#FF0000; stroke-width:0.40"/>
<line x1="67.00" y1="44.90" x2="66.50" y2="43.92" style="stroke:#FF0000; stroke-width:0.40"/>
<line x1="67.50" y1="45.91" x2="67.00" y2="44.90" style="stroke:#FF0000; stroke-width:0.40"/>
<line x1="68.00" y1="46.92" x2="67.50" y2="45.91" style="stroke:#FF0000; stroke-width:0.40"/>
<line x1="68.50" y1="47.93" x2="68.00" y2="46.92" style="stroke:#FF0000; stroke-width:0.40"/>
<line x1="69.00" y1="48.92" x2="68.50" y2="47.93" style="stroke:#FF0000; stroke-width:0.40"/>
<line x1="69.50" y1="49.85" x2="69.00" y2="48.92" style="stroke:#FF0000; stroke-width:0.40"/>
<line x1="70.00" y1="50.71" x2="69.50" y2="49.85" style="stroke:#FF0000; stroke-width:0.40"/>
<line x1="70.50" y1="51.46" x2="70.00" y2="50.71" style="stroke:#FF0000; stroke-width:0.40"/>
<line x1="71.00" y1="52.09" x2="70.50" y2="51.46" style="stroke:#FF0000; stroke-width:0.40"/>
<line x1="71.50" y1="52.55" x2="71.00" y2="52.09" style="stroke:#FF0000; stroke-width:0.40"/>
<line x1="72.00" y1="52.83" x2="71.50" y2="52.55" style="stroke:#FF0000; stroke-width:0.40"/>
<line x1="72.50" y1="52.88" x2="72.00" y2="52.83" style="stroke:#FF0000; stroke-width:0.40"/>
<line x1="73.00" y1="52.69" x2="72.50" y2="52.88" style="stroke:#FF0000; stroke-width:0.40"/>
<line x1="73.50" y1="52.23" x2="73.00" y2="52.69" style="stroke:#FF0000; stroke-width:0.40"/>
<line x1="74.00" y1="51.48" x2="73.50" y2="52.23" style="stroke:#FF0000; stroke-width:0.40"/>
<line x1="74.50" y1="50.42" x2="74.00" y2="51.48" style="stroke:#FF0000; stroke-width:0.40"/>
<line x1="75.00" y1="49.05" x2="74.50" y2="50.42" style="stroke:#FF0000; stroke-width:0.40"/>
<line x1="75.50" y1="47.38" x2="75.00" y2="49.05" style="stroke:#FF0000; stroke-width:0.40"/>
<line x1="76.00" y1="45.43" x2="75.50" y2="47.38" style="stroke:#FF0000; stroke-width:0.40"/>
<line x1="76.50" y1="43.21" x2="76.00" y2="45.43" style="stroke:#FF0000; stroke-width:0.40"/>
<line x1="77.00" y1="40.78" x2="76.50" y2="43.21" style="stroke:#FF0000; stroke-width:0.40"/>
<line x1="77.50" y1="38.19" x2="77.00" y2="40.78" style="stroke:#FF0000; stroke-width:0.40"/>
<line x1="78.00" y1="35.52" x2="77.50" y2="38.19" style="stroke:#FF0000; stroke-width:0.40"/>
<line x1="78.50" y1="32.85" x2="78.00" y2="35.52" style="stroke:#FF0000; stroke-width:0.40"/>
<line x1="79.00" y1="30.28" x2="78.50" y2="32.85" style="stroke:#FF0000; stroke-width:0.40"/>
<line x1="79.50" y1="27.91" x2="79.00" y2="30.28" style="stroke:#FF0000; stroke-width:0.40"/>
<line x1="80.00" y1="25.85" x2="79.50" y2="27.91" style="stroke:#FF0000; stroke-width:0.40"/>
<line x1="80.50" y1="24.20" x2="80.00" y2="25.85" style="stroke:#FF0000; stroke-width:0.40"/>
<line x1="81.00" y1="23.07" x2="80.50" y2="24.20" style="stroke:#FF0000; stroke-width:0.40"/>
<line x1="81.50" y1="22.54" x2="81.00" y2="23.07" style="stroke:#FF0000; stroke-width:0.40"/>
<line x1="82.00" y1="22.67" x2="81.50" y2="22.54" style="stroke:#FF0000; stroke-width:0.40"/>
<line x1="82.50" y1="23.50" x2="82.00" y2="22.67" style="stroke:#FF0000; stroke-width:0.40"/>
<line x1="83.00" y1="25.02" x2="82.50" y2="23.50" style="stroke:#FF0000; stroke-width:0.40"/>
<line x1="83.50" y1="27.19" x2="83.00" y2="25.02" style="stroke:#FF0000; stroke-width:0.40"/>
<line x1="84.00" y1="29.93" x2="83.50" y2="27.19" style="stroke:#FF0000; stroke-width:0.40"/>
<line x1="84.50" y1="33.10" x2="84.00" y2="29.93" style="stroke:#FF0000; stroke-width:0.40"/>
<line x1="85.00" y1="36.53" x2="84.50" y2="33.10" style="stroke:#FF0000; stroke-width:0.40"/>
<line x1="85.50" y1="40.03" x2="85.00" y2="36.53" style="stroke:#FF0000; stroke-width:0.40"/>
<line x1="86.00" y1="43.37" x2="85.50" y2="40.03" style="stroke:#FF0000; stroke-width:0.40"/>
<line x1="86.50" y1="46.30" x2="86.00" y2="43.37" style="stroke:#FF0000; stroke-width:0.40"/>
<line x1="87.00" y1="48.61" x2="86.50" y2="46.30" style="stroke:#FF0000; stroke-width:0.40"/>
<line x1="87.50" y1="50.10" x2="87.00" y2="48.61" style="stroke:#FF0000; stroke-width:0.40"/>
<line x1="88.00" y1="50.60" x2="87.50" y2="50.10" style="stroke:#FF0000; stroke-width:0.40"/>
<line x1="88.50" y1="50.05" x2="88.00" y2="50.60" style="stroke:#FF0000; stroke-width:0.40"/>
<line x1="89.00" y1="48.44" x2="88.50" y2="50.05" style="stroke:#FF0000; stroke-width:0.40"/>
<line x1="89.50" y1="45.86" x2="89.00" y2="48.44" style="stroke:#FF0000; stroke-width:0.40"/>
<line x1="90.00" y1="42.50" x2="89.50" y2="45.86" style="stroke:#FF0000; stroke-width:0.40"/>
</svg>
